<?xml version='1.0' encoding='utf-8'?>
<svg xmlns="http://www.w3.org/2000/svg" width="91.44mm" height="91.44mm" version="1.1" style="shape-rendering:geometricPrecision; text-rendering:geometricPrecision; image-rendering:optimizeQuality; fill-rule:evenodd; clip-rule:evenodd" viewBox="0 0 9144 9144"> <defs> <style type="text/css">  .fil0 {fill:#F0F0F0} .fil1 {fill:#011627;fill-rule:nonzero}  </style> </defs> <g id="Layer_x0020_1"> <metadata id="CorelCorpID_0Corel-Layer"/> <g id="_2744712242432"> <polygon class="fil0" points="0,0 9144,0 9144,9144 0,9144 "/> <path class="fil1" d="M4846 5772c49,0 88,39 88,88 0,48 -39,88 -88,88l-2391 0c-48,0 -88,-40 -88,-88l0 -3069c0,-14 3,-28 9,-39l0 -1 1 -1 1 -1 0 -1 1 -1 0 -1 1 -1 1 -1 0 -1 1 -1c1,-1 1,-2 2,-3l0 -1 1 0 1 -1c1,-2 2,-4 4,-5l0 -1 1 -1c1,-1 3,-2 4,-3l1 -2c2,-1 4,-3 5,-4l2 -1 0 -1 1 0 3 -2 1 -1 1 0 1 -1 1 0 0 -1 1 0 1 -1 1 -1 2 0 0 -1c12,-5 25,-9 39,-9l4228 0c49,0 88,40 88,89l0 2213c0,49 -39,89 -88,89 -49,0 -88,-40 -88,-89l0 -2001 -1963 1964c-35,34 -91,34 -125,0l-1963 -1964 0 2769 2302 0zm854 -989l495 0c49,0 88,39 88,88l0 406 406 0c48,0 88,39 88,88l0 495c0,48 -40,88 -88,88l-406 0 0 405c0,49 -39,89 -88,89l-495 0c-49,0 -88,-40 -88,-89l0 -405 -406 0c-48,0 -88,-40 -88,-88l0 -495c0,-49 40,-88 88,-88l406 0 0 -406c0,-49 39,-88 88,-88zm407 176l-319 0 0 406c0,49 -39,88 -88,88l-405 0 0 318 405 0c49,0 88,40 88,89l0 405 319 0 0 -405c0,-49 39,-89 88,-89l405 0 0 -318 -405 0c-49,0 -88,-39 -88,-88l0 -406zm363 -2080l-3802 0 1901 1901 1901 -1901z"/> </g> </g> </svg>