<?xml version='1.0' encoding='utf-8'?>
<svg xmlns="http://www.w3.org/2000/svg" width="91.44mm" height="91.44mm" version="1.1" style="shape-rendering:geometricPrecision; text-rendering:geometricPrecision; image-rendering:optimizeQuality; fill-rule:evenodd; clip-rule:evenodd" viewBox="0 0 9144 9144"> <defs> <style type="text/css">  .fil0 {fill:#F0F0F0} .fil1 {fill:#011627;fill-rule:nonzero}  </style> </defs> <g id="Layer_x0020_1"> <metadata id="CorelCorpID_0Corel-Layer"/> <g id="_2744492887776"> <polygon class="fil0" points="0,0 9144,0 9144,9144 0,9144 "/> <path class="fil1" d="M4347 6515l451 0 0 -347 -451 0 0 347zm1994 -850c52,0 95,42 95,95 0,52 -43,94 -95,94 -53,0 -95,-42 -95,-94 0,-53 42,-95 95,-95zm-3471 -295l1171 -1222c33,-35 88,-36 123,-3l2 3 790 824 442 -411c35,-33 90,-31 122,4l1 1 754 804 292 0 0 -2116 -3990 0 0 2116 293 0zm2206 -273l223 233 38 40 700 0 -584 -624 -377 351zm-972 -764l-994 1037 1987 0 -207 -216 -2 -3 -784 -818zm887 -833c214,4 351,124 410,276 22,57 33,120 33,182 -1,62 -13,124 -37,181 -61,147 -198,261 -409,259 -220,-2 -360,-122 -422,-274 -23,-58 -34,-121 -34,-184 1,-63 13,-125 38,-182 64,-148 204,-262 421,-258zm249 339c-36,-91 -120,-164 -252,-166 -135,-2 -221,65 -259,153 -15,37 -23,76 -24,116 0,40 7,80 22,117 37,92 124,165 262,166 129,1 212,-66 248,-153 16,-36 23,-76 24,-116 0,-39 -7,-80 -21,-117zm-2750 -1384l4164 0c48,0 87,39 87,87l0 3539c0,48 -39,87 -87,87l-1683 0 0 347 324 0c48,0 87,39 87,87 0,48 -39,87 -87,87l-1438 0c-48,0 -87,-39 -87,-87 0,-48 39,-87 87,-87l316 0 0 -347 -1683 0c-48,0 -87,-39 -87,-87l0 -3539c0,-48 39,-87 87,-87zm4077 174l-3990 0 0 451 3990 0 0 -451zm-3990 2915l0 450 3990 0 0 -450 -3990 0z"/> </g> </g> </svg>